<svg viewBox="-300 -200 1624 2024" xmlns="http://www.w3.org/2000/svg">

  <!-- Background; frequency; box; HSK level -->
  <rect x="-300" y="-200" width="1624" height="2024" fill="white"/>
  <rect x="0" y="-124" width="60" height="1010.1353965183753" fill="gray" transform="scale(1, -1) translate(0, -900)"/>
  <rect width="1024" height="1024" fill="none" stroke="black" stroke-width="10"/>
  <text x="900" y="160" font-family="Arial" font-size="180" text-anchor="north" fill="gray">1</text>

  <!-- Make Me a Hanzi character data -->
  <g transform="scale(1, -1) translate(0, -900)">
      <path d="M 309 330 Q 336 436 346 565 Q 349 604 366 649 Q 373 662 362 672 Q 341 691 299 710 Q 274 722 255 716 Q 231 707 249 686 Q 282 652 281 615 Q 280 482 263 395 Q 227 212 112 102 Q 90 83 63 60 Q 50 53 46 47 Q 42 40 60 40 Q 96 36 193 118 Q 263 181 303 307 L 309 330 Z" fill="black"></path>
      <path d="M 303 307 Q 339 271 415 176 Q 428 157 442 151 Q 449 150 457 158 Q 469 170 461 210 Q 451 264 309 330 C 282 343 282 328 303 307 Z" fill="black"></path>
      <path d="M 647 367 Q 660 433 680 609 Q 683 655 702 709 Q 709 722 698 732 Q 677 751 635 770 Q 610 782 591 776 Q 567 767 585 746 Q 618 712 617 675 Q 616 503 591 391 Q 558 213 441 94 Q 413 69 375 36 Q 360 29 358 23 Q 352 16 372 15 Q 414 15 515 100 Q 591 169 637 326 Q 636 327 637 327 L 647 367 Z" fill="black"></path>
      <path d="M 637 327 Q 793 39 842 35 Q 911 34 970 32 Q 995 31 996 37 Q 997 44 971 59 Q 830 132 800 165 Q 718 256 647 367 C 631 392 623 353 637 327 Z" fill="black"></path>
  </g>

  <!-- Pinyin; Hint -->
  <text x="512" y="1160" font-family="Arial" font-size="120" text-anchor="middle" fill="black">cóng</text>
  <text x="512" y="1650" font-family="Arial" font-size="350" text-anchor="middle" fill="black">从头到尾</text>
</svg>