<svg viewBox="-300 -200 1624 2024" xmlns="http://www.w3.org/2000/svg">

  <!-- Background; frequency; box; HSK level -->
  <rect x="-300" y="-200" width="1624" height="2024" fill="white"/>
  <rect x="0" y="-124" width="60" height="995.2804642166344" fill="gray" transform="scale(1, -1) translate(0, -900)"/>
  <rect width="1024" height="1024" fill="none" stroke="black" stroke-width="10"/>
  <text x="900" y="160" font-family="Arial" font-size="180" text-anchor="north" fill="gray">1</text>

  <!-- Make Me a Hanzi character data -->
  <g transform="scale(1, -1) translate(0, -900)">
      <path d="M 493 696 Q 527 736 560 768 Q 573 780 561 797 Q 522 839 496 842 Q 483 841 483 826 Q 477 714 306 577 Q 284 571 235 528 Q 225 515 241 516 Q 275 516 347 563 L 360 571 Q 424 616 471 670 L 493 696 Z" fill="black"></path>
      <path d="M 376 277 Q 536 421 691 621 Q 713 649 751 677 Q 767 687 762 697 Q 761 707 698 736 Q 680 746 635 724 Q 578 708 493 696 C 463 692 441 674 471 670 Q 498 657 614 679 Q 633 683 639 675 Q 643 668 629 648 Q 544 503 400 361 Q 279 243 47 82 Q 31 70 46 69 Q 82 69 200 143 Q 293 204 358 262 L 376 277 Z" fill="black"></path>
      <path d="M 347 563 Q 347 554 415 477 Q 419 471 426 464 Q 436 451 450 451 Q 460 450 465 461 Q 471 473 466 500 Q 462 530 371 568 Q 365 571 360 571 C 343 573 343 573 347 563 Z" fill="black"></path>
      <path d="M 417 266 Q 405 272 376 277 C 349 282 349 282 358 262 Q 359 258 362 253 Q 393 183 407 69 Q 410 35 428 12 Q 446 -10 451 5 Q 455 15 456 31 L 454 70 Q 448 88 431 229 C 427 259 427 262 417 266 Z" fill="black"></path>
      <path d="M 756 100 Q 790 199 833 231 Q 854 252 838 273 Q 789 315 745 326 Q 729 329 713 323 Q 602 284 417 266 C 387 263 401 225 431 229 Q 434 229 684 267 Q 712 273 723 260 Q 735 248 730 224 Q 715 158 697 105 C 688 77 746 72 756 100 Z" fill="black"></path>
      <path d="M 456 31 Q 462 31 469 32 Q 566 48 772 58 Q 785 59 786 69 Q 787 78 756 100 C 739 113 727 110 697 105 Q 561 80 454 70 C 424 67 426 29 456 31 Z" fill="black"></path>
  </g>

  <!-- Pinyin; Hint -->
  <text x="512" y="1160" font-family="Arial" font-size="120" text-anchor="middle" fill="black">míng</text>
  <text x="512" y="1650" font-family="Arial" font-size="350" text-anchor="middle" fill="black">什么名字</text>
</svg>